FFmpeg version SVN-r25716, Copyright (c) 2000-2010 the FFmpeg developers  built on Nov 10 2010 12:23:18 with gcc 4.1.2 20080704 (Red Hat 4.1.2-48)  configuration: --enable-libmp3lame --enable-shared --disable-mmx --arch=x86_64  libavutil     50.33. 0 / 50.33. 0  libavcore      0.12. 1 /  0.12. 1  libavcodec    52.94. 4 / 52.94. 4  libavformat   52.84. 0 / 52.84. 0  libavdevice   52. 2. 2 / 52. 2. 2  libavfilter    1.59. 0 /  1.59. 0  libswscale     0.12. 0 /  0.12. 0Input #0, avi, from '/RAID10/data/converted_video_files/47591.avi':  Duration: 00:00:09.70, start: 0.000000, bitrate: 175501 kb/s    Stream #0.0: Video: msvideo1, rgb555le, 1024x1024, 20 tbr, 20 tbn, 20 tbc[buffer @ 0x148443b0] w:1024 h:1024 pixfmt:rgb555le[ffsink @ 0x14860b40] auto-inserting filter 'auto-inserted scaler 0' between the filter 'src' and the filter 'out'[scale @ 0x1489ae00] w:1024 h:1024 fmt:rgb555le -> w:1024 h:1024 fmt:yuv420p flags:0x4Output #0, flv, to '/RAID10/data/converted_video_files/47591.flv':  Metadata:    encoder         : Lavf52.84.0    Stream #0.0: Video: flv, yuv420p, 1024x1024, q=2-31, 600 kb/s, 1k tbn, 24 tbcStream mapping:  Stream #0.0 -> #0.0Press [q] to stop encodingframe=    8 fps=  0 q=12.3 size=     768kB time=0.37 bitrate=16829.8kbits/s    frame=   16 fps= 13 q=31.0 size=     794kB time=0.79 bitrate=8217.5kbits/s    frame=   25 fps= 14 q=31.0 size=     850kB time=1.25 bitrate=5572.9kbits/s    frame=   32 fps= 14 q=31.0 size=     888kB time=1.58 bitrate=4596.2kbits/s    frame=   40 fps= 14 q=31.0 size=     896kB time=2.00 bitrate=3669.0kbits/s    frame=   48 fps= 14 q=31.0 size=     932kB time=2.38 bitrate=3213.6kbits/s    frame=   58 fps= 15 q=31.0 size=     969kB time=2.88 bitrate=2761.2kbits/s    frame=   68 fps= 15 q=31.0 size=    1019kB time=3.37 bitrate=2473.5kbits/s    frame=   77 fps= 16 q=31.0 size=    1031kB time=3.83 bitrate=2202.8kbits/s    frame=   85 fps= 16 q=31.0 size=    1064kB time=4.25 bitrate=2051.7kbits/s    frame=   93 fps= 15 q=31.0 size=    1101kB time=4.62 bitrate=1949.8kbits/s    frame=   99 fps= 15 q=31.0 size=    1105kB time=4.96 bitrate=1825.5kbits/s    frame=  109 fps= 15 q=31.0 size=    1140kB time=5.46 bitrate=1710.0kbits/s    frame=  118 fps= 16 q=31.0 size=    1189kB time=5.88 bitrate=1658.1kbits/s    frame=  128 fps= 16 q=31.0 size=    1228kB time=6.37 bitrate=1578.0kbits/s    frame=  137 fps= 16 q=31.0 size=    1234kB time=6.83 bitrate=1478.9kbits/s    frame=  147 fps= 16 q=31.0 size=    1275kB time=7.33 bitrate=1424.3kbits/s    frame=  156 fps= 16 q=31.0 size=    1320kB time=7.79 bitrate=1388.0kbits/s    frame=  165 fps= 16 q=31.0 size=    1359kB time=8.25 bitrate=1349.7kbits/s    frame=  176 fps= 16 q=31.0 size=    1400kB time=8.79 bitrate=1304.3kbits/s    frame=  180 fps= 16 q=31.0 Lsize=    1403kB time=9.00 bitrate=1277.1kbits/s    video:1400kB audio:0kB global headers:0kB muxing overhead 0.215536%